<svg width="20" height="20" xmlns="http://www.w3.org/2000/svg" xmlns:svg="http://www.w3.org/2000/svg">
 <g class="layer">
  <title>background</title>
  <rect x="-1" y="-1" width="582" height="402" id="canvas_background" fill="none"/>
 </g>
 <g class="layer">
  <title>Layer 1</title>
  <path fill-rule="evenodd" clip-rule="evenodd" d="m10,3.04878c0.2379,0 0.4552,0.13505 0.5605,0.34836l1.7859,3.61818l3.994,0.58378c0.2354,0.0344 0.4308,0.19941 0.5041,0.42566c0.0734,0.22625 0.012,0.47454 -0.1584,0.64049l-2.8895,2.81443l0.6819,3.9759c0.0402,0.2345 -0.0562,0.4715 -0.2486,0.6114c-0.1925,0.1398 -0.4477,0.1582 -0.6583,0.0475l-3.5716,-1.8783l-3.57157,1.8783c-0.21058,0.1107 -0.46576,0.0923 -0.65825,-0.0475c-0.19248,-0.1399 -0.28889,-0.3769 -0.24867,-0.6114l0.68193,-3.9759l-2.8895,-2.81443c-0.17039,-0.16595 -0.23181,-0.41424 -0.15845,-0.64049c0.07336,-0.22625 0.26879,-0.39126 0.50414,-0.42566l3.99397,-0.58378l1.78598,-3.61818c0.10529,-0.21331 0.32255,-0.34836 0.56042,-0.34836zm0,2.03703l-1.37079,2.77711c-0.09096,0.18428 1.20871,-2.63874 -0.47005,0.34179l-3.06638,0.4482l2.21832,2.16067c0.14742,0.1436 0.21471,0.3505 0.17992,0.5534l-0.52339,3.0516l2.74148,-1.4417c0.18211,-0.0958 0.39969,-0.0958 0.58179,0l2.7415,1.4417l-0.5234,-3.0516c-0.0348,-0.2029 0.0325,-0.4098 0.1799,-0.5534l2.2184,-2.16067l-3.0664,-0.4482c-0.2034,-0.02972 -0.3791,-0.15751 -0.4701,-0.34179l-1.3708,-2.77711z" fill="#F2C94C" id="svg_2"/>
  <path d="m6.57622,11.03473l-2.57622,-2.82441l3.26677,-0.1794l2.96189,0.03588l5.84756,0.14352l-2.5,2.82441l0,3.29514l-0.5,0.94147l-3,-1.4122l-1,0.47073l-2.5,0.94147l0,-0.94147l0,-3.29514z" fill="#f2c94c" id="svg_3" stroke="null"/>
  <line fill="none" stroke-width="null" stroke-opacity="null" fill-opacity="0" x1="-0.70883" y1="4.02821" x2="2.33994" y2="1.43674" id="svg_4" stroke-linejoin="null" stroke-linecap="null" stroke="null"/>
  <line fill="none" stroke-width="null" stroke-opacity="null" x1="8.74238" y1="8.52515" x2="11.1814" y2="5.40016" id="svg_5" stroke-linejoin="null" stroke-linecap="null" stroke="null" fill-opacity="0" transform="rotate(-94.90787506103516 9.961888313293453,6.962654590606688) "/>
  <polyline fill="none" stroke="null" stroke-width="null" stroke-opacity="null" fill-opacity="0" points="15.449688486019959,2.7324752597306694 15.373469034103131,2.7324752597306694 " id="svg_6" stroke-linecap="round"/>
  <path d="m6.69668,9.4778l-2.20298,-2.10042l2.79348,-0.13342l2.53278,0.02669l5.00036,0.10673l-2.1378,2.10042l0,2.45048l-0.42756,0.70014l-2.56536,-1.05021l-0.85512,0.35007l-2.1378,0.70014l0,-0.70014l0,-2.45048z" fill="#f2c94c" id="svg_8" transform="rotate(64.96170806884766 9.657011985778809,9.936193466186523) " stroke="null"/>
 </g>
</svg>